<svg width="50" height="40" viewBox="0 0 50 40" xmlns="http://www.w3.org/2000/svg"><title>commandline</title><defs><linearGradient x1="50%" y1="0%" x2="50%" y2="100%" id="a"><stop stop-color="#205681" offset="0%"/><stop stop-color="#205681" stop-opacity=".632" offset="100%"/></linearGradient></defs><path d="M165.436.347h-42.872C120.587.347 119 1.958 119 3.936v32.128c0 1.978 1.587 3.59 3.564 3.59h42.872c1.977 0 3.564-1.612 3.564-3.59V3.936c0-1.978-1.587-3.59-3.564-3.59zm1.782 35.717a1.777 1.777 0 0 1-1.782 1.783h-42.872a1.777 1.777 0 0 1-1.782-1.783V3.936c0-1.001.806-1.783 1.782-1.783h42.872c.976 0 1.782.782 1.782 1.783v32.128zm-39.673-10.888v.024l12.5-8.935v-.025a.877.877 0 0 0 .39-.708.885.885 0 0 0-.463-.757v-.024l-12.5-7.129a.843.843 0 0 0-.44-.122c-.488 0-.879.39-.879.903 0 .318.171.586.44.757l11.28 6.47-11.353 8.105v.025a.856.856 0 0 0-.367.708c0 .488.39.879.88.879a.92.92 0 0 0 .512-.171zm20.02.17h-8.912a.901.901 0 0 0-.903.904c0 .488.39.903.903.903h8.911a.917.917 0 0 0 .904-.903.917.917 0 0 0-.904-.903z" transform="translate(-119)" fill="url(#a)" fill-rule="evenodd"/></svg>