<svg width="50" height="50" viewBox="0 0 50 50" xmlns="http://www.w3.org/2000/svg"><title>compassnavigate</title><defs><linearGradient x1="50%" y1="0%" x2="50%" y2="100%" id="a"><stop stop-color="#205681" offset="0%"/><stop stop-color="#205681" stop-opacity=".632" offset="100%"/></linearGradient></defs><path d="M119 0c-13.818 0-25 11.182-25 25 0 13.794 11.182 25 25 25s25-11.206 25-25c0-13.818-11.182-25-25-25zm0 48.218c-12.817 0-23.218-10.4-23.218-23.218 0-12.817 10.4-23.218 23.218-23.218 12.817 0 23.218 10.4 23.218 23.218 0 12.817-10.4 23.218-23.218 23.218zm-.903-8.936c.366 0 .683-.22.805-.512h.025l10.693-23.218c.049-.122.098-.244.098-.366a.901.901 0 0 0-.904-.904.689.689 0 0 0-.366.098v-.025L105.23 25.073a.93.93 0 0 0-.512.806c0 .513.39.903.879.903h11.62V38.38c0 .513.391.903.88.903z" transform="translate(-94)" fill="url(#a)" fill-rule="evenodd"/></svg>