<svg width="43" height="43" viewBox="0 0 43 43" xmlns="http://www.w3.org/2000/svg"><title>box</title><defs><linearGradient x1="50%" y1="0%" x2="50%" y2="100%" id="a"><stop stop-color="#205681" offset="0%"/><stop stop-color="#205681" stop-opacity=".632" offset="100%"/></linearGradient></defs><path d="M148.467 43c.84 0 1.533-.693 1.533-1.533V13.06a.99.99 0 0 0-.084-.357L143.786.42h-.022a.748.748 0 0 0-.672-.42h-29.184a.748.748 0 0 0-.672.42h-.021l-6.131 12.283a.99.99 0 0 0-.084.357v28.407c0 .84.693 1.533 1.533 1.533h39.934zM130.033 1.533l1.532 12.282v6.152h-6.13v-6.152l1.532-12.282h3.066zm18.434 39.934h-39.934V13.815h13.06c.42 0 .755-.336.755-.755a.758.758 0 0 0-.756-.777h-12.576l5.375-10.75h11.044l-1.533 12.282v6.152s0 1.533 1.533 1.533h6.13s1.533 0 1.533-1.533v-6.152l-1.533-12.282h11.044l5.375 10.75h-12.576a.758.758 0 0 0-.756.777c0 .42.336.755.756.755h13.06v27.652zM126.19 32.25h-13.815a.77.77 0 0 0-.777.756c0 .44.357.777.777.777h13.815c.42 0 .777-.336.777-.777a.77.77 0 0 0-.777-.756zm13.837 6.13c.21 0 .399-.083.525-.21l3.296-3.295v1.217c0 .42.357.756.777.756a.77.77 0 0 0 .777-.756v-3.086a.77.77 0 0 0-.777-.756h-3.065a.77.77 0 0 0-.777.756c0 .44.357.777.777.777h1.217l-3.296 3.296a.758.758 0 0 0 .546 1.302zm-16.902-1.532h-10.75a.789.789 0 0 0-.777.777c0 .42.357.756.777.756h10.75a.77.77 0 0 0 .777-.756.789.789 0 0 0-.777-.777z" transform="translate(-107)" fill="url(#a)" fill-rule="evenodd"/></svg>